<svg width="35" height="23" viewBox="0 0 35 23" fill="none" xmlns="http://www.w3.org/2000/svg">
<path d="M24.675 1.04377L33.9719 10.3406C34.2791 10.6483 34.4517 11.0653 34.4517 11.5C34.4517 11.9348 34.2791 12.3518 33.9719 12.6594L24.675 21.9563C24.4745 22.1722 24.2194 22.3301 23.9367 22.4133C23.654 22.4964 23.354 22.5018 23.0685 22.4288C22.783 22.3558 22.5224 22.2071 22.3143 21.9984C22.1062 21.7898 21.9582 21.5289 21.886 21.2431C21.8129 20.9579 21.818 20.6583 21.9007 20.3758C21.9835 20.0932 22.1409 19.8382 22.3563 19.6375L30.4938 11.5L22.3563 3.36252C22.1403 3.16199 21.9824 2.90692 21.8993 2.62419C21.8161 2.34146 21.8108 2.04153 21.8838 1.75601C21.9568 1.47049 22.1054 1.20994 22.3141 1.00183C22.5228 0.793707 22.7837 0.645722 23.0694 0.57346C23.3546 0.500361 23.6542 0.50546 23.9368 0.588222C24.2193 0.670984 24.4743 0.82835 24.675 1.04377ZM10.325 1.04377C10.6362 0.754128 11.0476 0.596402 11.4727 0.603745C11.8977 0.611087 12.3034 0.782927 12.6044 1.08315C12.9046 1.38415 13.0765 1.78982 13.0838 2.21489C13.0911 2.63996 12.9334 3.05133 12.6438 3.36252L4.50627 11.5L12.6438 19.6375C12.8597 19.8381 13.0176 20.0931 13.1008 20.3759C13.1839 20.6586 13.1893 20.9585 13.1163 21.244C13.0433 21.5296 12.8946 21.7901 12.6859 21.9982C12.4773 22.2063 12.2164 22.3543 11.9306 22.4266C11.6454 22.4997 11.3458 22.4946 11.0633 22.4118C10.7807 22.3291 10.5257 22.1717 10.325 21.9563L1.02815 12.6594C0.720911 12.3518 0.54834 11.9348 0.54834 11.5C0.54834 11.0653 0.720911 10.6483 1.02815 10.3406L10.325 1.04377Z" fill="white"/>
</svg>
